# 3ds Max Wavefront OBJ Exporter v0.97b - (c)2007 guruware
# File Created: 18.04.2020 22:14:33

#
# object wall_window_001
#

v  40.0000000000 300.0000000000 250.0000000000
v  50.0000000000 300.0000000000 250.0000000000
v  50.0000000000 300.0000000000 150.0000000000
v  40.0000000000 300.0000000000 150.0000000000
v  50.0000000000 106.6666717529 250.0000000000
v  50.0000000000 203.3333435059 250.0000000000
v  40.0000000000 203.3333282471 250.0000000000
v  40.0000000000 106.6666564941 250.0000000000
v  40.0000000000 106.6666717529 150.0000000000
v  40.0000000000 203.3333435059 150.0000000000
v  50.0000000000 203.3333435059 150.0000000000
v  50.0000000000 106.6666717529 150.0000000000
v  40.0000000000 10.0000000000 250.0000000000
v  50.0000000000 10.0000000000 250.0000000000
v  50.0000000000 10.0000000000 150.0000000000
v  40.0000000000 10.0000000000 150.0000000000
v  50.0000000000 113.4241333008 243.2425384521
v  50.0000000000 196.5758819580 243.2425384521
v  50.0000000000 113.4241333008 156.7574615479
v  50.0000000000 196.5758819580 156.7574615479
v  40.0000000000 196.5758666992 243.2425384521
v  40.0000000000 113.4241180420 243.2425384521
v  40.0000000000 196.5758819580 156.7574615479
v  40.0000000000 113.4241256714 156.7574615479
v  50.0000038147 192.2346038818 238.9012603760
v  49.9999961853 117.7654113770 238.9012603760
v  39.9999961853 117.7653961182 238.9012603760
v  40.0000038147 192.2345886230 238.9012603760
v  49.9999961853 117.7654113770 161.0987396240
v  39.9999961853 117.7654037476 161.0987396240
v  50.0000038147 192.2346038818 161.0987396240
v  40.0000038147 192.2346038818 161.0987396240
v  36.5798568726 113.4241180420 243.2425384521
v  36.5798568726 196.5758666992 243.2425384521
v  36.5798568726 192.2345886230 238.9012603760
v  36.5798492432 117.7653961182 238.9012603760
v  36.5798568726 196.5758666992 202.9719848633
v  36.5798568726 192.2345886230 202.9719848633
v  36.5798568726 196.5758819580 156.7574615479
v  36.5798568726 113.4241256714 156.7574615479
v  36.5798492432 117.7654037476 161.0987396240
v  36.5798568726 192.2346038818 161.0987396240
v  36.5798568726 113.4241180420 197.0280151367
v  36.5798492432 117.7653961182 197.0280151367
v  40.0000000000 196.5758666992 202.9719848633
v  40.0000000000 113.4241180420 197.0280151367
v  39.9999961853 117.7653961182 202.9719848633
v  36.5798492432 117.7653961182 202.9719848633
v  40.0000038147 192.2345886230 197.0280151367
v  36.5798568726 192.2345886230 197.0280151367
v  36.5798568726 196.5758666992 197.0280151367
v  36.5798568726 113.4241180420 202.9719848633
v  40.0000000000 196.5758666992 197.0280151367
v  40.0000000000 113.4241180420 202.9719848633
v  39.9999961853 117.7653961182 197.0280151367
v  40.0000038147 192.2345886230 202.9719848633
# 56 vertices

vn -0.5773502588 0.5773502588 0.5773502588
vn 0.5773502588 0.5773502588 0.5773502588
vn 0.5773502588 0.5773502588 -0.5773502588
vn -0.5773502588 0.5773502588 -0.5773502588
vn 0.7071068287 0.0000000000 0.7071067691
vn 0.7071067691 0.0000000000 0.7071067691
vn -0.7071068287 0.0000000000 0.7071067691
vn -0.7071067691 0.0000000000 0.7071068287
vn -0.7071068287 0.0000000000 -0.7071067691
vn -0.7071067691 0.0000000000 -0.7071068287
vn 0.7071068287 0.0000000000 -0.7071067691
vn 0.7071067691 0.0000000000 -0.7071067691
vn -0.7071067691 0.0000000000 0.7071067691
vn -0.7071067691 0.0000000000 -0.7071067691
vn 1.0000000000 0.0000001098 -0.0000001098
vn 1.0000000000 0.0000001098 0.0000001098
vn -1.0000000000 0.0000000000 -0.0000000000
vn 0.9045343399 -0.3015109301 -0.3015108407
vn 0.9045337439 0.3015117347 -0.3015118241
vn -0.0000010790 0.7071068287 -0.7071067691
vn 0.0000010790 -0.7071067095 -0.7071068883
vn 0.9045338035 0.3015116751 0.3015117645
vn -0.0000005395 0.7071067691 0.7071068287
vn 0.9045342207 -0.3015110791 0.3015109897
vn 0.0000000000 -0.7071068883 0.7071067095
vn -0.5773499012 -0.5773504376 0.5773504376
vn -0.9045340419 -0.3015113175 -0.3015114069
vn -0.9045344591 0.3015107512 -0.3015106618
vn -0.7071067691 0.7071067691 -0.0000000000
vn -0.9045340419 -0.3015113175 0.3015113473
vn -0.5773502588 0.5773503780 -0.5773501396
vn -0.5773499012 -0.5773503780 -0.5773504972
vn -0.9045344591 0.3015107214 0.3015107214
vn -0.9045341015 -0.3015112579 0.3015112281
vn -0.7071061730 -0.7071074247 -0.0000000670
vn -0.9045343399 0.3015104234 -0.3015113771
vn 0.0000000000 -0.7071067691 0.7071067691
vn 0.0000000000 0.7071067691 0.7071067691
vn 0.0000000000 1.0000000000 -0.0000000000
vn 0.0000000000 0.7071068883 -0.7071066499
vn 0.0000000000 -0.7071067095 -0.7071068287
vn 0.0000000000 -1.0000000000 -0.0000000947
vn 0.0000000000 -0.7071067691 -0.7071067691
vn 0.0000000000 0.7071067691 -0.7071067691
vn -0.9045343399 0.3015104234 0.3015114367
vn 0.0000000000 0.7071067095 0.7071068883
vn 0.0000000000 -0.7071069479 0.7071066499
vn 0.5773501396 -0.5773501992 -0.5773504376
vn -0.9045339823 -0.3015113175 -0.3015114665
vn -0.7071067691 0.7071067691 0.0000001340
vn -0.7071061730 -0.7071074247 -0.0000000000
vn 0.0000000000 1.0000000000 0.0000001895
vn 0.0000000000 -1.0000000000 -0.0000000000
vn 0.5773503184 0.5773502588 -0.5773501992
vn 0.5773502588 -0.5773503184 0.5773502588
# 55 vertex normals

vt 0.7292490005 0.0005000124 0.0000000000
vt 0.7617499232 0.0005000124 0.0000000000
vt 0.7617499232 0.3255093992 0.0000000000
vt 0.7292490005 0.3255093992 0.0000000000
vt 0.3973754048 0.3146757782 0.0000000000
vt 0.3973754048 0.6288515925 0.0000000000
vt 0.3648744822 0.6288515329 0.0000000000
vt 0.3648744822 0.3146757185 0.0000000000
vt 0.3609379828 0.3146757782 0.0000000000
vt 0.3609379828 0.6288515925 0.0000000000
vt 0.3284370303 0.6288515925 0.0000000000
vt 0.3284370303 0.3146757782 0.0000000000
vt 0.3973754048 0.9430272579 0.0000000000
vt 0.3648744822 0.9430272579 0.0000000000
vt 0.3648744822 0.0005000000 0.0000000000
vt 0.3973754048 0.0005000000 0.0000000000
vt 0.7263213396 0.6288515925 0.0000000000
vt 0.7263213396 0.9430272579 0.0000000000
vt 0.4013119340 0.9430272579 0.0000000000
vt 0.4013119340 0.6288515925 0.0000000000
vt 0.4013119340 0.3146757782 0.0000000000
vt 0.4013119340 0.0005000000 0.0000000000
vt 0.7263213396 0.0005000000 0.0000000000
vt 0.7263213396 0.3146757782 0.0000000000
vt 0.3609379828 0.9430272579 0.0000000000
vt 0.3284370303 0.9430272579 0.0000000000
vt 0.3284370303 0.0005000000 0.0000000000
vt 0.3609379828 0.0005000000 0.0000000000
vt 0.3255093992 0.6288515329 0.0000000000
vt 0.3255093992 0.9430272579 0.0000000000
vt 0.0005000000 0.9430272579 0.0000000000
vt 0.0005000000 0.6288515925 0.0000000000
vt 0.0005000000 0.3146757782 0.0000000000
vt 0.0005000000 0.0005000000 0.0000000000
vt 0.3255093992 0.0005000000 0.0000000000
vt 0.3255093992 0.3146757185 0.0000000000
vt 0.4232743084 0.3366381526 0.0000000000
vt 0.4232743084 0.6068891287 0.0000000000
vt 0.7043589950 0.3366381526 0.0000000000
vt 0.7043589950 0.6068891287 0.0000000000
vt 0.3035469949 0.6068890691 0.0000000000
vt 0.3035469949 0.3366380930 0.0000000000
vt 0.0224623717 0.6068891287 0.0000000000
vt 0.0224623717 0.3366381228 0.0000000000
vt 0.7292489409 0.9433190227 0.0000000000
vt 0.9712808132 0.9433190227 0.0000000000
vt 0.9712809324 0.9758200049 0.0000000000
vt 0.7292490005 0.9758200049 0.0000000000
vt 0.1534224898 0.3494031429 0.0000000000
vt 0.1534224898 0.6022686958 0.0000000000
vt 0.1209215596 0.6022686958 0.0000000000
vt 0.1209215596 0.3494031429 0.0000000000
vt 0.7930145264 0.2425318658 0.0000000000
vt 0.7930145264 0.0005000124 0.0000000000
vt 0.8255154490 0.0005000124 0.0000000000
vt 0.8255154490 0.2425319105 0.0000000000
vt 0.1863777339 0.3494031429 0.0000000000
vt 0.1863777339 0.6022686958 0.0000000000
vt 0.1538767815 0.6022686958 0.0000000000
vt 0.1538767815 0.3494031429 0.0000000000
vt 0.4373838603 0.3507477045 0.0000000000
vt 0.4373838603 0.5927795768 0.0000000000
vt 0.6902493834 0.3507477045 0.0000000000
vt 0.6902493834 0.5927795768 0.0000000000
vt 0.9995000362 0.9420135021 0.0000000000
vt 0.7292491198 0.9420135021 0.0000000000
vt 0.7433586717 0.9279038310 0.0000000000
vt 0.9853906035 0.9279038310 0.0000000000
vt 0.7292491198 0.8111303449 0.0000000000
vt 0.7433586717 0.8111303449 0.0000000000
vt 0.7292490602 0.6609288454 0.0000000000
vt 0.9995000362 0.6609288454 0.0000000000
vt 0.9853904843 0.6750383973 0.0000000000
vt 0.7433586121 0.6750383973 0.0000000000
vt 0.9995000362 0.7918119431 0.0000000000
vt 0.9853906035 0.7918119431 0.0000000000
vt 0.7904662490 0.0005000124 0.0000000000
vt 0.7904662490 0.2707509995 0.0000000000
vt 0.7793505192 0.2707509995 0.0000000000
vt 0.7793505192 0.0005000124 0.0000000000
vt 0.7403647304 0.3375464082 0.0000000000
vt 0.7403647304 0.4684295058 0.0000000000
vt 0.7292490005 0.4684295058 0.0000000000
vt 0.7292490005 0.3375464082 0.0000000000
vt 0.7656865120 0.2707510293 0.0000000000
vt 0.7656865120 0.0005000124 0.0000000000
vt 0.7768022418 0.0005000124 0.0000000000
vt 0.7768022418 0.2707510293 0.0000000000
vt 0.7540287971 0.3375464082 0.0000000000
vt 0.7540287971 0.4684295058 0.0000000000
vt 0.7429130673 0.4684295058 0.0000000000
vt 0.7429130673 0.3375464082 0.0000000000
vt 0.7292490005 0.9797564745 0.0000000000
vt 0.9712809324 0.9797564745 0.0000000000
vt 0.9712809324 0.9908723235 0.0000000000
vt 0.7292490005 0.9908722639 0.0000000000
vt 0.5393586159 0.3682627976 0.0000000000
vt 0.5393586159 0.4850363135 0.0000000000
vt 0.5282427669 0.4850363135 0.0000000000
vt 0.5282427669 0.3682627976 0.0000000000
vt 0.1979478151 0.3494031429 0.0000000000
vt 0.1979478300 0.5914351344 0.0000000000
vt 0.1868320256 0.5914351344 0.0000000000
vt 0.1868319958 0.3494031429 0.0000000000
vt 0.5509286523 0.3682627976 0.0000000000
vt 0.5509286523 0.4850363135 0.0000000000
vt 0.5398129225 0.4850363135 0.0000000000
vt 0.5398129225 0.3682627976 0.0000000000
vt 0.7292491198 0.7918119431 0.0000000000
vt 0.7433586717 0.7918119431 0.0000000000
vt 0.9995000362 0.8111303449 0.0000000000
vt 0.9853906035 0.8111303449 0.0000000000
vt 0.7403647304 0.4877479970 0.0000000000
vt 0.7403647304 0.6186310649 0.0000000000
vt 0.7292490005 0.6186310649 0.0000000000
vt 0.7292490005 0.4877479970 0.0000000000
vt 0.7540287971 0.4877479970 0.0000000000
vt 0.7540287971 0.6186310649 0.0000000000
vt 0.7429130673 0.6186310649 0.0000000000
vt 0.7429130673 0.4877479970 0.0000000000
vt 0.5740689039 0.3682627976 0.0000000000
vt 0.5740689039 0.4850363135 0.0000000000
vt 0.5629530549 0.4850363135 0.0000000000
vt 0.5629530549 0.3682627976 0.0000000000
vt 0.5624988079 0.3682627976 0.0000000000
vt 0.5624988079 0.4850363135 0.0000000000
vt 0.5513830185 0.4850363135 0.0000000000
vt 0.5513830185 0.3682627976 0.0000000000
vt 0.7565770745 0.3375464082 0.0000000000
vt 0.7676928639 0.3375464082 0.0000000000
vt 0.7676929235 0.5795783401 0.0000000000
vt 0.7565771341 0.5795783401 0.0000000000
vt 0.8294520378 0.0005000124 0.0000000000
vt 0.8487704396 0.0005000124 0.0000000000
vt 0.8487704396 0.2425318658 0.0000000000
vt 0.8294520378 0.2425318658 0.0000000000
vt 0.8522253633 0.0005000124 0.0000000000
vt 0.8633412719 0.0005000124 0.0000000000
vt 0.8633412719 0.2425318658 0.0000000000
vt 0.8522253633 0.2425318658 0.0000000000
# 140 texture coords

o wall_window_001
g wall_window_001
s off
f 1/1/1 2/2/2 3/3/3 4/4/4 
f 5/5/5 6/6/6 7/7/7 8/8/8 
f 9/9/9 10/10/10 11/11/11 12/12/12 
f 6/6/6 2/13/2 1/14/1 7/7/7 
f 8/8/8 13/15/13 14/16/6 5/5/5 
f 11/17/11 3/18/3 2/19/2 6/20/6 
f 5/21/5 14/22/6 15/23/12 12/24/12 
f 10/10/10 4/25/4 3/26/3 11/11/11 
f 12/12/12 15/27/12 16/28/14 9/9/9 
f 7/29/7 1/30/1 4/31/4 10/32/10 
f 9/33/9 16/34/14 13/35/13 8/36/8 
f 6/20/6 5/21/5 17/37/15 18/38/16 
f 5/21/5 12/24/12 19/39/16 17/37/15 
f 12/24/12 11/17/11 20/40/15 19/39/16 
f 11/17/11 6/20/6 18/38/16 20/40/15 
f 8/36/8 7/29/7 21/41/17 22/42/17 
f 7/29/7 10/32/10 23/43/17 21/41/17 
f 10/32/10 9/33/9 24/44/17 23/43/17 
f 9/33/9 8/36/8 22/42/17 24/44/17 
f 25/45/18 26/46/19 27/47/20 28/48/21 
f 26/49/19 29/50/22 30/51/23 27/52/20 
f 29/53/22 31/54/24 32/55/25 30/56/23 
f 31/57/24 25/58/18 28/59/21 32/60/25 
f 18/38/16 17/37/15 26/61/19 25/62/18 
f 17/37/15 19/39/16 29/63/22 26/61/19 
f 19/39/16 20/40/15 31/64/24 29/63/22 
f 20/40/15 18/38/16 25/62/18 31/64/24 
f 33/65/26 34/66/1 35/67/27 36/68/28 
f 34/66/1 37/69/29 38/70/30 35/67/27 
f 39/71/31 40/72/32 41/73/33 42/74/34 
f 40/72/32 43/75/35 44/76/36 41/73/33 
f 22/77/37 21/78/38 34/79/1 33/80/26 
f 21/81/38 45/82/39 37/83/29 34/84/1 
f 23/85/40 24/86/41 40/87/32 39/88/31 
f 24/89/41 46/90/42 43/91/35 40/92/32 
f 28/93/43 27/94/44 36/95/28 35/96/27 
f 27/97/44 47/98/2 48/99/45 36/100/28 
f 30/101/46 32/102/47 42/103/34 41/104/33 
f 32/105/47 49/106/48 50/107/49 42/108/34 
f 51/109/50 39/71/31 42/74/34 50/110/49 
f 52/111/51 33/65/26 36/68/28 48/112/45 
f 53/113/52 23/114/40 39/115/31 51/116/50 
f 54/117/53 22/118/37 33/119/26 52/120/51 
f 55/121/54 30/122/46 41/123/33 44/124/36 
f 56/125/55 28/126/43 35/127/27 38/128/30 
f 37/69/29 51/109/50 50/110/49 38/70/30 
f 43/75/35 52/111/51 48/112/45 44/76/36 
f 45/82/39 53/113/52 51/116/50 37/83/29 
f 46/90/42 54/117/53 52/120/51 43/91/35 
f 48/129/45 47/130/2 56/131/55 38/132/30 
f 47/133/2 55/134/54 49/135/48 56/136/55 
f 55/137/54 44/138/36 50/139/49 49/140/48 
f 44/76/36 48/112/45 38/70/30 50/110/49 
# 53 polygons

