# 3ds Max Wavefront OBJ Exporter v0.97b - (c)2007 guruware
# File Created: 19.04.2020 18:58:34

mtllib arc_floor_003.mtl

#
# object floor_01
#

v  -50.0000000000 10.0000000000 50.0000000000
v  50.0000000000 10.0000000000 50.0000000000
v  50.0000000000 10.0000000000 -50.0000000000
v  -50.0000000000 10.0000000000 -50.0000000000
v  -50.0000000000 0.0000000000 50.0000000000
v  50.0000000000 0.0000000000 50.0000000000
v  50.0000000000 0.0000000000 -50.0000000000
v  -50.0000000000 0.0000000000 -50.0000000000
# 8 vertices

vn 0.0000000000 1.0000000000 -0.0000000000
vn 0.0000000000 0.0000000000 1.0000000000
vn 1.0000000000 0.0000000000 -0.0000000000
vn 0.0000000000 0.0000000000 -1.0000000000
vn -1.0000000000 0.0000000000 -0.0000000000
# 5 vertex normals

vt 0.1751840264 0.0926943794 0.0000000000
vt 0.9942710996 0.0926943794 0.0000000000
vt 0.9942710996 0.9117814302 0.0000000000
vt 0.1751840264 0.9117814302 0.0000000000
vt 0.0053523183 0.0005000532 0.0000000000
vt 0.8244394064 0.0005000234 0.0000000000
vt 0.8244394064 0.0824087560 0.0000000000
vt 0.0053523183 0.0824086964 0.0000000000
vt 0.0053523364 0.0005000010 0.0000000000
vt 0.8244393468 0.0005000010 0.0000000000
vt 0.8244393468 0.0824087039 0.0000000000
vt 0.0053523364 0.0824087039 0.0000000000
vt 0.0053523183 0.0004999638 0.0000000000
vt 0.8244394064 0.0004999936 0.0000000000
vt 0.8244394064 0.0824086964 0.0000000000
vt 0.0053523304 0.0005000000 0.0000000000
vt 0.8244393468 0.0005000000 0.0000000000
vt 0.0053523304 0.0824087039 0.0000000000
# 18 texture coords

o floor_01
g floor_01
usemtl 02___Default
s off
f 1/1/1 2/2/1 3/3/1 4/4/1 
f 5/5/2 6/6/2 2/7/2 1/8/2 
f 6/9/3 7/10/3 3/11/3 2/12/3 
f 7/13/4 8/14/4 4/15/4 3/8/4 
f 8/16/5 5/17/5 1/11/5 4/18/5 
# 5 polygons

