# 3ds Max Wavefront OBJ Exporter v0.97b - (c)2007 guruware
# File Created: 19.04.2020 18:58:02

mtllib wall_window_003.mtl

#
# object wall_window_001
#

v  40.0000000000 300.0000000000 250.0000000000
v  50.0000000000 300.0000000000 250.0000000000
v  50.0000000000 300.0000000000 150.0000000000
v  40.0000000000 300.0000000000 150.0000000000
v  50.0000000000 106.6666717529 250.0000000000
v  50.0000000000 203.3333435059 250.0000000000
v  40.0000000000 203.3333282471 250.0000000000
v  40.0000000000 106.6666564941 250.0000000000
v  40.0000000000 106.6666717529 150.0000000000
v  40.0000000000 203.3333435059 150.0000000000
v  50.0000000000 203.3333435059 150.0000000000
v  50.0000000000 106.6666717529 150.0000000000
v  40.0000000000 10.0000000000 250.0000000000
v  50.0000000000 10.0000000000 250.0000000000
v  50.0000000000 10.0000000000 150.0000000000
v  40.0000000000 10.0000000000 150.0000000000
v  50.0000000000 113.4241333008 243.2425384521
v  50.0000000000 196.5758819580 243.2425384521
v  50.0000000000 113.4241333008 156.7574615479
v  50.0000000000 196.5758819580 156.7574615479
v  40.0000000000 196.5758666992 243.2425384521
v  40.0000000000 113.4241180420 243.2425384521
v  40.0000000000 196.5758819580 156.7574615479
v  40.0000000000 113.4241256714 156.7574615479
v  50.0000038147 192.2346038818 238.9012603760
v  49.9999961853 117.7654113770 238.9012603760
v  39.9999961853 117.7653961182 238.9012603760
v  40.0000038147 192.2345886230 238.9012603760
v  49.9999961853 117.7654113770 161.0987396240
v  39.9999961853 117.7654037476 161.0987396240
v  50.0000038147 192.2346038818 161.0987396240
v  40.0000038147 192.2346038818 161.0987396240
v  36.5798568726 113.4241180420 243.2425384521
v  36.5798568726 196.5758666992 243.2425384521
v  36.5798568726 192.2345886230 238.9012603760
v  36.5798492432 117.7653961182 238.9012603760
v  36.5798568726 196.5758666992 202.9719848633
v  36.5798568726 192.2345886230 202.9719848633
v  36.5798568726 196.5758819580 156.7574615479
v  36.5798568726 113.4241256714 156.7574615479
v  36.5798492432 117.7654037476 161.0987396240
v  36.5798568726 192.2346038818 161.0987396240
v  36.5798568726 113.4241180420 197.0280151367
v  36.5798492432 117.7653961182 197.0280151367
v  40.0000000000 196.5758666992 202.9719848633
v  40.0000000000 113.4241180420 197.0280151367
v  39.9999961853 117.7653961182 202.9719848633
v  36.5798492432 117.7653961182 202.9719848633
v  40.0000038147 192.2345886230 197.0280151367
v  36.5798568726 192.2345886230 197.0280151367
v  36.5798568726 196.5758666992 197.0280151367
v  36.5798568726 113.4241180420 202.9719848633
v  40.0000000000 196.5758666992 197.0280151367
v  40.0000000000 113.4241180420 202.9719848633
v  39.9999961853 117.7653961182 197.0280151367
v  40.0000038147 192.2345886230 202.9719848633
# 56 vertices

vn 0.0000000000 1.0000000000 -0.0000000000
vn 0.0000000000 0.0000000000 1.0000000000
vn 0.0000000000 0.0000000000 0.9999999404
vn 0.0000000000 0.0000000000 -1.0000000000
vn 1.0000000000 0.0000000000 -0.0000000000
vn -1.0000000000 0.0000000000 -0.0000000000
vn -0.9999999404 0.0000000000 -0.0000000000
vn 0.9999999404 0.0000000000 -0.0000000000
vn 0.0000000000 0.0000000000 -0.9999999404
vn -0.0000011444 1.0000000000 0.0000000490
vn 0.0000007629 -1.0000000000 -0.0000000981
vn 1.0000000000 -0.0000000484 -0.0000000000
vn 1.0000000000 0.0000008787 -0.0000000000
vn -1.0000000000 0.0000000484 0.0000008787
vn -1.0000000000 0.0000000484 -0.0000008787
vn -0.9999999404 -0.0000017574 -0.0000000000
vn -1.0000000000 -0.0000017574 -0.0000000000
vn 0.0000000000 -1.0000000000 -0.0000001895
vn 0.0000000000 -1.0000000000 -0.0000004247
vn 0.0000000000 1.0000000000 0.0000003789
vn 0.0000000000 -1.0000000000 -0.0000000000
vn 0.0000000000 1.0000000000 0.0000002123
vn 1.0000000000 -0.0000001025 -0.0000000000
vn -1.0000000000 0.0000001025 -0.0000000000
# 24 vertex normals

vt 0.7525728345 0.0322992727 0.0000000000
vt 0.7836504579 0.0322992727 0.0000000000
vt 0.7836504579 0.3430756330 0.0000000000
vt 0.7525728345 0.3430756330 0.0000000000
vt 0.4000000060 0.3279607594 0.0000000000
vt 0.4000000060 0.6283779740 0.0000000000
vt 0.3689224124 0.6283779144 0.0000000000
vt 0.3689224124 0.3279607296 0.0000000000
vt 0.4000000656 0.3279607594 0.0000000000
vt 0.4000000656 0.6283779740 0.0000000000
vt 0.3689224124 0.6283779740 0.0000000000
vt 0.3689224124 0.3279607594 0.0000000000
vt 0.4000000060 0.9287950397 0.0000000000
vt 0.3689224124 0.9287950397 0.0000000000
vt 0.3689224124 0.0275435839 0.0000000000
vt 0.4000000060 0.0275435839 0.0000000000
vt 0.3332242966 0.6283779740 0.0000000000
vt 0.3332242966 0.9287950397 0.0000000000
vt 0.0224479437 0.9287950397 0.0000000000
vt 0.0224479437 0.6283779740 0.0000000000
vt 0.0224479437 0.3279607594 0.0000000000
vt 0.0224479437 0.0275435839 0.0000000000
vt 0.3332242966 0.0275435839 0.0000000000
vt 0.3332242966 0.3279607594 0.0000000000
vt 0.4000000656 0.9287950397 0.0000000000
vt 0.4000000656 0.0275435839 0.0000000000
vt 0.3332242966 0.6283779144 0.0000000000
vt 0.0224479288 0.9287950397 0.0000000000
vt 0.0224479288 0.6283779740 0.0000000000
vt 0.0224479288 0.3279607594 0.0000000000
vt 0.0224479288 0.0275435839 0.0000000000
vt 0.3332242966 0.3279607296 0.0000000000
vt 0.0434485376 0.3489613533 0.0000000000
vt 0.0434485376 0.6073772907 0.0000000000
vt 0.3122237921 0.3489613533 0.0000000000
vt 0.3122237921 0.6073772907 0.0000000000
vt 0.3122237027 0.6073772311 0.0000000000
vt 0.3122237027 0.3489612937 0.0000000000
vt 0.0434485078 0.6073772907 0.0000000000
vt 0.0434485078 0.3489613235 0.0000000000
vt 0.8135458231 0.2637320757 0.0000000000
vt 0.8135457635 0.0322994031 0.0000000000
vt 0.8446235061 0.0322992839 0.0000000000
vt 0.8446235061 0.2637319565 0.0000000000
vt 0.8888078332 0.2711265087 0.0000000000
vt 0.8888078332 0.5129183531 0.0000000000
vt 0.8577302098 0.5129183531 0.0000000000
vt 0.8577302098 0.2711265087 0.0000000000
vt 0.8135458827 0.2637319267 0.0000000000
vt 0.8135458827 0.0322992727 0.0000000000
vt 0.8446235061 0.0322992727 0.0000000000
vt 0.8577301502 0.5129183531 0.0000000000
vt 0.8577301502 0.2711265087 0.0000000000
vt 0.0569401979 0.3624530137 0.0000000000
vt 0.0569401979 0.5938856602 0.0000000000
vt 0.2987320423 0.3624530137 0.0000000000
vt 0.2987320423 0.5938856602 0.0000000000
vt 0.9809082747 0.6583184004 0.0000000000
vt 0.9809082747 0.9167343378 0.0000000000
vt 0.9674164057 0.9032427073 0.0000000000
vt 0.9674164057 0.6718099713 0.0000000000
vt 0.8557567596 0.9167343378 0.0000000000
vt 0.8557567596 0.9032427073 0.0000000000
vt 0.7121329308 0.9167344570 0.0000000000
vt 0.7121329308 0.6583184600 0.0000000000
vt 0.7256245613 0.6718101501 0.0000000000
vt 0.7256245613 0.9032427669 0.0000000000
vt 0.8372843266 0.6583184004 0.0000000000
vt 0.8372843266 0.6718099713 0.0000000000
vt 0.8111091256 0.0322992727 0.0000000000
vt 0.8111091256 0.2907152474 0.0000000000
vt 0.8004801869 0.2907152474 0.0000000000
vt 0.8004801869 0.0322992727 0.0000000000
vt 0.7632017732 0.3545854986 0.0000000000
vt 0.7632017732 0.4797368944 0.0000000000
vt 0.7525728345 0.4797368944 0.0000000000
vt 0.7525728345 0.3545854986 0.0000000000
vt 0.8004801869 0.0322992466 0.0000000000
vt 0.8111091256 0.0322992466 0.0000000000
vt 0.8404338956 0.5025591850 0.0000000000
vt 0.8404338956 0.2711265087 0.0000000000
vt 0.8510629535 0.2711265087 0.0000000000
vt 0.8510628939 0.5025591850 0.0000000000
vt 0.8306583166 0.3777743876 0.0000000000
vt 0.8306583166 0.4894340634 0.0000000000
vt 0.8200292587 0.4894340634 0.0000000000
vt 0.8200292587 0.3777743876 0.0000000000
vt 0.8510628939 0.2711265087 0.0000000000
vt 0.8404338360 0.2711265087 0.0000000000
vt 0.8200293779 0.4894340634 0.0000000000
vt 0.8200293779 0.3777743876 0.0000000000
vt 0.8372843266 0.9167343378 0.0000000000
vt 0.8372843266 0.9032427073 0.0000000000
vt 0.8557567596 0.6583184004 0.0000000000
vt 0.8557567596 0.6718099713 0.0000000000
vt 0.7632017732 0.4982093871 0.0000000000
vt 0.7632017732 0.6233606935 0.0000000000
vt 0.7525728345 0.6233606935 0.0000000000
vt 0.7525728345 0.4982093871 0.0000000000
vt 0.7787041068 0.3545854986 0.0000000000
vt 0.7893330455 0.3545854986 0.0000000000
vt 0.7893331647 0.5860182047 0.0000000000
vt 0.7787041068 0.5860182047 0.0000000000
vt 0.8483876586 0.0322992727 0.0000000000
vt 0.8668600917 0.0322992727 0.0000000000
vt 0.8668600917 0.2637319267 0.0000000000
vt 0.8483876586 0.2637319267 0.0000000000
vt 0.8404338360 0.2711265385 0.0000000000
vt 0.8510628939 0.2711265385 0.0000000000
vt 0.8404338360 0.5025591850 0.0000000000
# 110 texture coords

o wall_window_001
g wall_window_001
usemtl 02___Default
s off
f 1/1/1 2/2/1 3/3/1 4/4/1 
f 5/5/2 6/6/3 7/7/2 8/8/3 
f 9/9/4 10/10/4 11/11/4 12/12/4 
f 6/6/3 2/13/2 1/14/2 7/7/2 
f 8/8/3 13/15/2 14/16/2 5/5/2 
f 11/17/5 3/18/5 2/19/5 6/20/5 
f 5/21/5 14/22/5 15/23/5 12/24/5 
f 10/10/4 4/25/4 3/14/4 11/11/4 
f 12/12/4 15/15/4 16/26/4 9/9/4 
f 7/27/6 1/18/6 4/28/6 10/29/7 
f 9/30/6 16/31/6 13/23/6 8/32/7 
f 6/20/8 5/21/8 17/33/5 18/34/5 
f 5/21/5 12/24/5 19/35/5 17/33/5 
f 12/24/8 11/17/8 20/36/5 19/35/5 
f 11/17/5 6/20/5 18/34/5 20/36/5 
f 8/32/7 7/27/7 21/37/6 22/38/6 
f 7/27/7 10/29/7 23/39/6 21/37/6 
f 10/29/7 9/30/6 24/40/6 23/39/6 
f 9/30/6 8/32/7 22/38/6 24/40/6 
f 25/41/9 26/42/4 27/43/9 28/44/4 
f 26/45/10 29/46/10 30/47/10 27/48/10 
f 29/49/3 31/50/2 32/51/2 30/44/2 
f 31/45/11 25/46/11 28/52/11 32/53/11 
f 18/34/12 17/33/12 26/54/12 25/55/12 
f 17/33/13 19/35/13 29/56/13 26/54/13 
f 19/35/12 20/36/12 31/57/12 29/56/12 
f 20/36/13 18/34/13 25/55/13 31/57/13 
f 33/58/14 34/59/14 35/60/14 36/61/14 
f 34/59/6 37/62/6 38/63/6 35/60/6 
f 39/64/15 40/65/15 41/66/15 42/67/15 
f 40/65/16 43/68/17 44/69/16 41/66/17 
f 22/70/2 21/71/2 34/72/2 33/73/2 
f 21/74/1 45/75/1 37/76/1 34/77/1 
f 23/72/4 24/78/4 40/79/4 39/71/4 
f 24/74/18 46/75/18 43/76/18 40/77/18 
f 28/80/4 27/81/4 36/82/4 35/83/4 
f 27/84/1 47/85/1 48/86/1 36/87/1 
f 30/88/2 32/83/2 42/80/2 41/89/2 
f 32/84/19 49/85/19 50/90/19 42/91/19 
f 51/92/6 39/64/6 42/67/7 50/93/7 
f 52/94/17 33/58/17 36/61/17 48/95/17 
f 53/96/20 23/97/20 39/98/20 51/99/20 
f 54/96/21 22/97/21 33/98/21 52/99/21 
f 55/84/22 30/85/22 41/86/22 44/87/22 
f 56/84/21 28/85/21 35/86/21 38/87/21 
f 37/62/6 51/92/6 50/93/6 38/63/6 
f 43/68/17 52/94/17 48/95/17 44/69/17 
f 45/75/1 53/96/1 51/99/1 37/76/1 
f 46/75/21 54/96/21 52/99/21 43/76/21 
f 48/100/2 47/101/2 56/102/2 38/103/2 
f 47/104/23 55/105/23 49/106/23 56/107/23 
f 55/108/4 44/109/4 50/83/4 49/110/4 
f 44/69/24 48/95/24 38/63/24 50/93/24 
# 53 polygons

