# 3ds Max Wavefront OBJ Exporter v0.97b - (c)2007 guruware
# File Created: 19.04.2020 12:50:59

#
# object wall_angle_001
#

v  40.0000000000 300.0000000000 -50.0000000000
v  50.0000000000 300.0000000000 -50.0000000000
v  50.0000076294 300.0000000000 -140.1571350098
v  40.0000000000 300.0000000000 -140.1571350098
v  40.0000000000 10.0000000000 -50.0000000000
v  50.0000000000 10.0000000000 -50.0000000000
v  50.0000038147 10.0000000000 -140.1571350098
v  -50.0000000000 10.0000000000 -150.1571350098
v  -50.0000000000 10.0000000000 -140.1571350098
v  -50.0000000000 300.0000000000 -140.1571350098
v  -50.0000000000 300.0000000000 -150.1571350098
v  40.0000000000 10.0000000000 -140.1571350098
v  40.0000000000 300.0000000000 -150.1571350098
v  40.0000000000 10.0000000000 -150.1571350098
v  50.0000114441 300.0000000000 -150.1571350098
v  50.0000114441 10.0000000000 -150.1571350098
# 16 vertices

vn -0.5773502588 0.5773502588 0.5773502588
vn 0.5773502588 0.5773502588 0.5773503184
vn 0.7071067691 0.7071067691 0.0000001648
vn -0.3015113473 0.9045340419 0.3015113473
vn -0.7071067691 0.0000000000 0.7071067691
vn 0.7071067691 0.0000000000 0.7071068287
vn 1.0000000000 -0.0000000132 0.0000004026
vn -0.7071067691 0.0000000000 -0.7071067691
vn -0.5773502588 0.5773502588 -0.5773502588
vn 0.0000000000 0.7071067691 -0.7071067691
vn 0.0000000000 0.0000000000 -1.0000000000
vn 0.5773503184 0.5773503184 -0.5773501396
vn 0.7071070671 0.0000000000 -0.7071065307
# 13 vertex normals

vt 0.6852291822 0.6443374753 0.0000000000
vt 0.7106096745 0.6443374753 0.0000000000
vt 0.7106096745 0.8731603622 0.0000000000
vt 0.6852291822 0.8731603622 0.0000000000
vt 0.4105171859 0.0576367378 0.0000000000
vt 0.4394864142 0.0576367378 0.0000000000
vt 0.4394865632 0.9015105963 0.0000000000
vt 0.4105172753 0.9015105963 0.0000000000
vt 0.3464855850 0.8910244703 0.0000000000
vt 0.0853069872 0.8910244703 0.0000000000
vt 0.0853071213 0.0509157032 0.0000000000
vt 0.3464857638 0.0509157106 0.0000000000
vt 0.4103873670 0.0576367639 0.0000000000
vt 0.4394864440 0.0576367639 0.0000000000
vt 0.4394864440 0.9015106559 0.0000000000
vt 0.4103873670 0.9015106559 0.0000000000
vt 0.0857621431 0.0509155393 0.0000000000
vt 0.3464855850 0.0509155989 0.0000000000
vt 0.3464854360 0.8910244703 0.0000000000
vt 0.0857620537 0.8910244107 0.0000000000
vt 0.6852291822 0.8985408545 0.0000000000
vt 0.4568050802 0.8985408545 0.0000000000
vt 0.4568050802 0.8731603622 0.0000000000
vt 0.3488845527 0.8910244703 0.0000000000
vt 0.0881612301 0.8910244703 0.0000000000
vt 0.0881612971 0.0509156846 0.0000000000
vt 0.3488847315 0.0509156957 0.0000000000
vt 0.0857623219 0.0509156585 0.0000000000
vt 0.3469409049 0.0509157181 0.0000000000
vt 0.3469406962 0.8910245299 0.0000000000
vt 0.0857620537 0.8910245299 0.0000000000
vt 0.7106096745 0.8985408545 0.0000000000
vt 0.3778540194 0.0509156957 0.0000000000
vt 0.3778539002 0.8910244703 0.0000000000
vt 0.0563378185 0.0509157032 0.0000000000
vt 0.0563376844 0.8910244703 0.0000000000
# 36 texture coords

o wall_angle_001
g wall_angle_001
s 1
f 1/1/1 2/2/2 3/3/3 4/4/4 
s 2
f 5/5/5 6/6/6 2/7/2 1/8/1 
s off
f 6/9/6 7/10/7 3/11/3 2/12/2 
s 2
f 8/13/8 9/14/5 10/15/1 11/16/9 
s 8
f 9/17/5 12/18/5 4/19/4 10/20/1 
s 1
f 13/21/10 11/22/9 10/23/1 4/4/4 
s off
f 14/24/11 8/25/8 11/26/9 13/27/10 
s 4
f 12/28/5 5/29/5 1/30/1 4/31/4 
s 1
f 13/21/10 4/4/4 3/3/3 15/32/12 
s off
f 13/27/10 15/33/12 16/34/13 14/24/11 
f 15/35/12 3/11/3 7/10/7 16/36/13 
# 11 polygons

